<?xml version="1.0" encoding="UTF-8" standalone="no"?>
<svg
   xmlns:dc="http://purl.org/dc/elements/1.1/"
   xmlns:cc="http://creativecommons.org/ns#"
   xmlns:rdf="http://www.w3.org/1999/02/22-rdf-syntax-ns#"
   xmlns:svg="http://www.w3.org/2000/svg"
   xmlns="http://www.w3.org/2000/svg"
   xmlns:sodipodi="http://sodipodi.sourceforge.net/DTD/sodipodi-0.dtd"
   xmlns:inkscape="http://www.inkscape.org/namespaces/inkscape"
   width="287.65274mm"
   height="48.5243mm"
   viewBox="0 0 287.65274 48.5243"
   version="1.1"
   id="svg8"
   inkscape:version="1.0alpha2 (aacb54732e, 2019-07-20)"
   sodipodi:docname="og-logo-raster-and-bitmap-trace-clean-up-nodes-10-slim-noguides-resized-clean-up.svg">
  <defs
     id="defs2" />
  <sodipodi:namedview
     borderlayer="false"
     inkscape:showpageshadow="false"
     fit-margin-bottom="0"
     fit-margin-right="0"
     fit-margin-left="0"
     fit-margin-top="0"
     id="base"
     pagecolor="#ffffff"
     bordercolor="#666666"
     borderopacity="1.0"
     inkscape:pageopacity="0.0"
     inkscape:pageshadow="2"
     inkscape:zoom="0.49497475"
     inkscape:cx="395.45061"
     inkscape:cy="62.697241"
     inkscape:document-units="mm"
     inkscape:current-layer="g745"
     inkscape:document-rotation="0"
     showgrid="false"
     inkscape:window-width="1403"
     inkscape:window-height="797"
     inkscape:window-x="8"
     inkscape:window-y="48"
     inkscape:window-maximized="0"
     inkscape:snap-grids="true"
     inkscape:snap-page="true"
     showborder="true"
     inkscape:pagecheckerboard="false"
     showguides="true"
     inkscape:guide-bbox="true"
     inkscape:snap-global="true"
     inkscape:snap-to-guides="true"
     inkscape:object-paths="true"
     inkscape:snap-intersection-paths="true"
     inkscape:snap-smooth-nodes="true"
     inkscape:snap-others="true"
     inkscape:object-nodes="true"
     inkscape:snap-text-baseline="true"
     inkscape:snap-bbox="true"
     inkscape:bbox-paths="true"
     inkscape:bbox-nodes="true"
     inkscape:snap-bbox-edge-midpoints="true"
     inkscape:snap-bbox-midpoints="true"
     inkscape:snap-midpoints="true"
     inkscape:snap-object-midpoints="true"
     inkscape:snap-center="true"
     inkscape:snap-nodes="true" />
  <metadata
     id="metadata5">
    <rdf:RDF>
      <cc:Work
         rdf:about="">
        <dc:format>image/svg+xml</dc:format>
        <dc:type
           rdf:resource="http://purl.org/dc/dcmitype/StillImage" />
        <dc:title></dc:title>
      </cc:Work>
    </rdf:RDF>
  </metadata>
  <g
     transform="translate(105.60655,-123.82496)"
     id="g745"
     style="display:inline"
     inkscape:label="vector-trace">
    <path
       style="display:inline;fill:#259bbb;stroke-width:0.264583"
       d="m 100.05787,162.62424 c -2.765487,-0.95561 -4.430179,-2.51469 -5.394305,-5.05207 -0.438089,-1.15295 -0.509688,-2.04588 -0.509688,-6.35639 0,-3.9279 0.093,-5.28943 0.429024,-6.28101 1.261375,-3.72222 4.60293,-5.95527 8.963689,-5.99013 2.95086,0.0889 4.75817,0.9222 8.21839,2.7321 -0.8893,1.16629 -2.5976,3.39201 -2.5976,3.39201 -1.13452,-0.96574 -2.56855,-1.77548 -3.81707,-2.00518 -2.73508,-0.48178 -4.8772,0.26027 -6.104333,2.11459 -0.725223,1.09589 -0.726475,1.10605 -0.726475,5.89892 0.05139,2.26306 -0.02915,3.91684 0.745104,5.92708 0.907034,1.37062 2.432744,2.12882 4.300104,2.13691 2.06398,-0.1404 3.83395,-0.64825 5.38636,-1.86936 l 2.80428,3.08426 c 0,0 -0.073,0.11683 -2.1647,1.34267 -2.4623,1.44301 -6.81295,1.86544 -9.53278,0.9256 z m 20.51745,-0.12105 c -2.19052,-0.74666 -3.84626,-2.08111 -4.86555,-3.9214 -0.83627,-1.41489 -0.83475,-4.62627 -0.8705,-6.9831 -0.078,-5.14744 -0.0422,-5.67653 0.47916,-7.06993 1.80916,-4.83541 8.57628,-7.08876 14.13403,-4.70643 1.83132,0.78499 3.73407,2.70273 4.43514,4.47008 0.54239,1.36732 0.59321,1.94073 0.60372,6.81135 -0.0453,3.19635 0.0987,4.63751 -0.91454,7.13379 -1.11274,2.18147 -2.70368,3.50371 -5.20281,4.32412 -2.33723,0.76726 -5.44449,0.74395 -7.79866,-0.0585 z m 8.90277,-5.84998 c 0.63128,-1.07719 0.65912,-1.31148 0.65912,-5.54637 0,-4.58095 -0.13975,-5.29736 -1.28868,-6.60635 -1.72007,-1.9597 -6.2398,-2.08251 -8.33015,-0.22634 -1.21637,1.08011 -1.48169,2.30692 -1.48786,6.87962 -0.005,3.71471 0.0634,4.44561 0.4952,5.29167 1.04178,2.04118 2.49152,2.75193 5.34638,2.6211 2.01092,-0.0571 3.5816,-0.71337 4.60599,-2.41333 z m 13.92585,5.89031 c -1.99657,-0.76691 -3.3441,-2.24097 -4.00517,-4.38128 -0.4571,-1.47993 -0.53031,-2.46055 -0.53031,-7.10378 0,-5.81961 0.1787,-6.86853 1.51393,-8.8862 0.77756,-1.17497 2.62209,-2.47422 4.15896,-2.9295 1.57531,-0.46667 5.00114,-0.32575 7.40016,0.30439 1.15107,0.30235 2.28302,0.69552 2.32967,0.69552 0,-4.10928 0.008,-11.54941 0.008,-11.54941 h 4.18531 c 0,0 -0.017,23.08623 -0.017,34.47214 h -3.69791 l -0.4784,-2.43107 c 0,0 -0.85712,0.2887 -1.46512,0.64156 -3.01089,1.74742 -6.70003,2.20554 -9.40226,1.16758 z m 8.38005,-4.7516 2.48719,-1.15859 c 0,-4.14514 0,-8.29027 0,-12.43541 l -2.30584,-0.60809 c -2.7918,-0.80204 -5.54001,-0.87299 -6.73405,-0.17384 -0.48596,0.28454 -1.13413,0.8535 -1.44038,1.26435 -0.52594,0.70558 -0.55682,1.06507 -0.55682,6.48229 0,5.08506 0.0539,5.81474 0.47587,6.43607 1.34053,1.97408 4.3967,2.04721 8.07403,0.19322 z m 17.20369,4.81601 c -2.9014,-0.92788 -4.83902,-2.67844 -5.70251,-5.15193 -0.67586,-1.93603 -0.68557,-10.19712 -0.0146,-12.33204 1.34967,-4.29379 5.52495,-6.63613 10.74836,-6.02987 3.25964,0.37833 5.83223,2.065 7.10602,4.6589 0.67916,1.38298 0.74554,1.79434 0.82973,5.14128 l 0.0915,3.63802 h -14.86741 v 1.61366 c 0,2.8112 1.21872,4.31896 4.06037,5.02332 1.85179,0.45901 4.54639,-0.0609 6.24711,-1.20543 l 1.2868,-0.86596 2.73521,2.76961 -1.00291,0.82669 c -2.02842,1.67199 -4.44759,2.42046 -7.77033,2.40408 -1.41441,-0.007 -2.80504,-0.18892 -3.74746,-0.49033 z m 8.70468,-15.09606 c -0.25413,-2.80249 -1.80128,-4.40824 -4.51749,-4.68858 -3.47671,-0.35883 -5.97501,1.73178 -5.99017,5.01265 l -0.006,1.25677 h 10.65683 z"
       id="path749"
       inkscape:connector-curvature="0"
       sodipodi:nodetypes="ccssccccccccccccccccccccscccssccccccssccccccccccccccccccscccccsccccscccccccccscccc"
       inkscape:label="trace-code" />
    <g
       inkscape:label="trace-operation"
       id="g47">
      <g
         style="fill:#46556a;fill-opacity:1"
         inkscape:label="O"
         id="g42">
        <path
           inkscape:label="trace-O-duplicate"
           sodipodi:nodetypes="cccssccscccssccccc"
           inkscape:connector-curvature="0"
           id="path749-4"
           d="m 50.934485,162.28552 c -2.19052,-0.74666 -3.84626,-2.08111 -4.865549,-3.9214 -0.836271,-1.41489 -0.834751,-4.62627 -0.8705,-6.9831 -0.078,-5.14744 0.360671,-10.51014 5.354558,-11.93118 2.536444,-0.72176 7.208087,-0.69031 9.459084,0.26727 5.669049,2.41163 4.825411,6.31596 4.838408,11.16898 -0.0453,3.19635 0.0987,4.63751 -0.91454,7.13379 -1.11274,2.18147 -2.70368,3.50371 -5.20281,4.32412 -2.337231,0.76726 -5.444489,0.74395 -7.798661,-0.0585 z m 8.902771,-5.84998 c 0.63128,-1.07719 0.65912,-1.31148 0.65912,-5.54637 0,-4.58095 -0.13975,-5.29736 -1.28868,-6.60635 -1.72007,-1.9597 -6.239801,-2.08251 -8.33015,-0.22634 -1.21637,1.08011 -1.481691,2.30692 -1.48786,6.87962 -0.005,3.71471 0.0634,4.44561 0.4952,5.29167 1.041779,2.04118 2.49152,2.75193 5.346379,2.6211 2.010921,-0.0571 3.581601,-0.71337 4.605991,-2.41333 z"
           style="display:inline;opacity:1;fill:#46556a;fill-opacity:1;stroke-width:0.264583" />
      </g>
      <path
         inkscape:label="trace-operation"
         sodipodi:nodetypes="cccscccsscccccccsccccccccsscccscccccccccccccccccccsscccccccccccccccccsccccccscccccsccssccccscccccccssccccccccccccsccccsccccccscccccccccccccccccccccccccccccccccccccscc"
         inkscape:connector-curvature="0"
         id="path747"
         d="m -69.623212,139.0385 h 3.657653 l 0.178805,1.32296 c 0.09834,0.58208 0.275966,1.05833 0.394722,1.05833 0.118755,0 1.254593,-0.49839 2.524088,-1.10754 1.992675,-0.95615 2.601912,-1.1224 4.457181,-1.21627 2.905821,-0.14703 4.704088,0.51308 6.33285,2.32465 1.724245,1.91778 1.901577,2.81828 1.901577,9.65645 0,4.87228 -0.07579,6.03779 -0.465098,7.15214 -0.621332,1.77849 -1.809877,3.16306 -3.464277,4.03562 -1.266918,0.66819 -1.584571,0.71783 -4.537292,0.70892 -2.950528,-0.009 -4.557014,-0.22157 -6.619164,-1.05135 -0.02098,3.34603 -0.0052,10.42685 -0.0052,10.42685 l -4.31464,-0.004 z m 13.647079,19.56621 c 1.467567,-0.90701 1.698755,-1.95976 1.698755,-7.73555 0,-4.42626 -0.06321,-5.20986 -0.483465,-5.99347 -1.291985,-2.40905 -4.836978,-2.43757 -9.173827,-0.0738 l -1.322917,0.72105 v 12.41676 l 1.314365,0.48801 c 2.871672,1.06623 6.401412,1.14465 7.967089,0.17701 z m -36.035785,8.22691 c -3.723283,-0.57773 -6.893482,-2.26371 -9.436802,-5.01869 -2.7019,-2.92676 -4.15783,-6.6254 -4.15783,-10.56258 0,-2.8702 0.37682,-4.51687 1.638,-7.15805 1.94579,-4.07485 5.827938,-7.19742 10.389988,-8.35707 1.994074,-0.50689 5.342963,-0.50819 7.485981,-0.003 6.863591,1.61827 11.989528,8.02584 12.041564,15.05229 0.02886,3.8973 -0.972873,6.9722 -3.271057,10.0407 -3.207171,4.28218 -9.422766,6.82358 -14.689844,6.00632 z m 2.151109,-10.51375 6.295084,3.35175 -1.202804,-7.00403 5.119198,-4.95078 -7.023151,-1.05781 -3.113052,-6.41362 -3.129369,6.4013 -7.034238,0.96168 5.036975,5.01274 -1.212603,6.92979 z m 50.671095,6.37361 c -2.945054,-0.79141 -5.128692,-2.69149 -6.016787,-5.23548 -0.387358,-1.1096 -0.471672,-2.2289 -0.470551,-6.24662 0.0016,-5.61529 0.261827,-6.78684 1.994689,-8.97907 2.239272,-2.8329 6.880842,-3.96254 11.06261,-2.69236 1.437643,0.43667 2.177849,0.86071 3.312253,1.89749 2.057337,1.88029 2.574896,3.33475 2.748309,7.72342 l 0.1333,3.37343 h -15.151487 l 0.0058,1.38907 c 0.01394,3.33518 2.349079,5.48367 5.965439,5.48862 1.530535,0.002 3.553309,-0.6578 4.812641,-1.57005 l 1.080903,-0.78301 2.50417,2.93117 -0.768337,0.64283 c -2.614533,2.18749 -7.440441,3.07432 -11.212963,2.06056 z m 8.407855,-14.98783 c -0.255728,-3.01223 -1.891048,-4.7058 -4.743154,-4.9121 -3.542863,-0.25627 -6.044972,1.99375 -6.050888,5.44126 l -0.0015,0.8599 h 10.913444 z m 29.0242743,15.17102 c -3.1422473,-0.87621 -4.8389991,-2.766 -5.2984375,-5.90124 -0.2749206,-1.87607 0.2599928,-3.67427 1.5181951,-5.10366 2.0059253,-2.27886 4.55968906,-3.02976 10.3286801,-3.03705 l 3.638021,-0.005 -5.292e-4,-1.52136 c -5.291e-4,-2.0582 -0.6124734,-3.21171 -2.1161376,-3.98854 -1.0739093,-0.55481 -1.4499908,-0.60329 -3.8364584,-0.49455 -2.65100869,0.1208 -3.700079,0.41548 -5.2795807,1.48305 l -0.7816639,0.52832 -0.9931321,-1.49551 c -1.1236193,-1.692 -1.1031617,-1.76447 0.7888817,-2.79424 1.8065698,-0.98326 4.26517348,-1.49829 7.17418,-1.50285 4.582348,-0.007 7.1695582,1.29618 8.5070612,4.2856 0.611634,1.36706 0.628136,1.60616 0.721974,10.46101 l 0.09603,9.06198 H 8.9784374 L 8.6934573,161.7923 c -0.1567391,-0.58208 -0.3446648,-1.05833 -0.417613,-1.05833 -0.072948,0 -0.6281791,0.25281 -1.2338448,0.56179 -2.7786066,1.41754 -6.79382815,2.13781 -8.7995842,1.5785 z m 7.0193749,-4.48648 c 3.2083509,-1.33615 3.1670838,-1.28551 3.1670838,-3.88652 v -2.23396 l -3.638021,0.006 c -5.38971082,0.009 -6.7150538,0.47041 -7.4663223,2.59735 -0.3418999,0.96796 -0.3418999,1.23594 0,2.22499 0.8405813,2.43163 3.9753012,2.94182 7.9372595,1.29183 z M 23.5437,162.73813 c -1.45048,-0.47594 -2.585604,-1.52633 -3.309117,-3.06209 -0.525087,-1.11457 -0.566465,-1.69343 -0.647759,-9.06198 l -0.08684,-7.87135 h -3.133609 v -3.70417 h 3.347466 l 0.463085,-2.64583 0.463087,-2.64584 h 3.134696 v 2.63769 2.63769 c 2.160764,0.0495 6.482292,0.1486 6.482292,0.1486 l 0.15646,3.57188 H 23.7747 v 6.58151 c 0,3.61983 0.07526,6.95783 0.167254,7.41778 0.09199,0.45995 0.511413,1.20469 0.93205,1.65499 l 0.764799,0.81872 2.777906,-0.12355 c 3.113553,-0.13847 2.73835,-0.37892 3.261876,2.09033 0.229801,1.08387 0.216067,1.11641 -0.593172,1.405 -1.376749,0.49098 -6.210258,0.58753 -7.541721,0.15064 z M -21.733627,139.0385 h 3.662048 l 0.184174,1.71979 c 0.101295,0.94589 0.242466,1.7198 0.313713,1.7198 0.07125,0 0.581589,-0.35803 1.134092,-0.79562 1.868204,-1.47965 7.2032311,-2.73804 7.2032311,-2.73804 l -0.3925702,4.332 c 0,0 -4.1276169,0.77354 -5.9568109,1.59144 l -1.914544,0.85606 V 162.851 h -4.233333 z m 57.414585,0 h 3.96875 v 23.8125 h -3.96875 z m 33.602085,-0.13322 h 3.657653 l 0.186071,1.2577 c 0.102335,0.61846 0.241046,1.21726 0.308239,1.33066 0.0672,0.1134 0.738071,-0.14456 1.490835,-0.57326 3.152193,-1.79515 6.903993,-2.61216 9.471332,-1.70692 1.493864,0.52673 3.517543,2.54369 4.288775,4.24756 0.506232,1.88928 0.174945,1.02052 0.23326,19.38961 h -3.954891 c 0.02196,-5.98751 0,-11.61442 0.01717,-17.36825 0.0461,-2.87663 -5.76017,-3.1011 -10.208337,-0.69078 l -1.256771,0.681 v 17.37803 h -4.233333 z m -168.142714,-9.59155 v -5.48877 h 17.991674 v 5.48877 l -8.995836,5.17609 z m 134.784861,4.45346 c -1.108811,-1.10881 -1.091642,-2.61595 0.04065,-3.56871 1.153816,-0.97088 2.424824,-0.92639 3.47276,0.12154 0.714944,0.71495 0.789596,0.93271 0.657465,1.91782 -0.298862,2.22819 -2.620684,3.07954 -4.170878,1.52935 z"
         style="display:inline;opacity:1;fill:#46556a;fill-opacity:1;stroke-width:0.264583" />
    </g>
  </g>
</svg>
